<svg width="1080" height="1080" viewBox="0 0 1080 1080" fill="none" xmlns="http://www.w3.org/2000/svg">
<path fill-rule="evenodd" clip-rule="evenodd" d="M212.831 213.21H866.552V866.932H212.831V213.21ZM247.429 247.808V832.333H831.954V247.808H247.429Z" fill="#FF2057"/>
<path fill-rule="evenodd" clip-rule="evenodd" d="M77.9996 540.071L540.069 78.0017L1002.14 540.071L540.069 1002.14L77.9996 540.071ZM126.929 540.071L540.069 953.211L953.209 540.071L540.069 126.931L126.929 540.071Z" fill="white"/>
<path d="M230.13 230.509H539.692M849.253 230.509V540.07M849.253 849.632H539.692M230.13 849.632V540.07" stroke="#FF2057" stroke-width="34.5983"/>
<path d="M400.326 509.739L393.955 512.925L393.841 513.038C376.397 513.038 363.655 508.905 355.616 500.638C347.349 492.295 343.216 478.795 343.216 460.138V359.261L369.04 333.546V447.396C369.04 458.014 371.012 465.143 374.956 468.784C379.203 472.652 387.508 474.586 399.871 474.586L396.913 493.812L399.984 474.586L405.559 477.999L400.326 509.739Z" fill="white"/>
<path d="M455.615 509.739L449.244 512.925V513.038H393.955L388.38 509.625L393.614 477.885L400.098 474.586H455.16L452.202 493.812L455.274 474.586L460.848 477.999L455.615 509.739Z" fill="white"/>
<path d="M539.915 509.739L533.544 512.925L533.43 513.038C522.737 513.038 514.318 511.939 508.175 509.739C501.804 507.464 496.798 503.482 493.158 497.794C489.517 503.71 484.549 507.729 478.254 509.853C472.111 511.977 462.441 513.038 449.244 513.038L443.67 509.625L448.903 477.885L455.388 474.586C466.385 474.586 473.78 472.804 477.572 469.239C481.288 465.75 484.132 457.825 486.104 445.462L488.266 430.786L504.875 426.918L504.193 441.708C503.51 455.663 505.482 464.688 510.109 468.784C514.432 472.652 524.253 474.586 539.574 474.586L545.148 477.999L539.915 509.739Z" fill="white"/>
<path d="M624.101 509.739L617.73 512.925L617.616 513.038C606.922 513.038 598.504 511.939 592.361 509.739C585.99 507.464 580.984 503.482 577.344 497.794C573.703 503.71 568.735 507.729 562.44 509.853C556.297 511.977 546.627 513.038 533.43 513.038L527.856 509.625L533.089 477.885L539.574 474.586C550.571 474.586 557.966 472.804 561.758 469.239C565.474 465.75 568.318 457.825 570.29 445.462L572.452 430.786L589.061 426.918L588.379 441.708C587.696 455.663 589.668 464.688 594.294 468.784C598.618 472.652 608.439 474.586 623.76 474.586L629.334 477.999L624.101 509.739Z" fill="white"/>
<path d="M722.28 433.062C730.243 446.941 734.225 463.399 734.225 482.436C734.225 485.166 732.784 489.641 729.902 495.86C726.944 502.155 723.342 507.881 719.094 513.038C708.931 512.962 698.313 511.104 687.24 507.464C676.698 504.051 667.445 499.349 659.482 493.357H658.913C654.362 500.335 649.129 505.302 643.213 508.26C636.843 511.446 628.31 513.038 617.616 513.038L612.042 509.625L617.275 477.885L623.76 474.586C631.647 474.586 637.791 472.879 642.189 469.466C647.195 465.598 652.732 457.521 658.799 445.235C664.639 433.479 670.365 425.022 675.978 419.865C681.362 414.859 687.354 412.357 693.952 412.357C704.874 412.357 714.316 419.258 722.28 433.062ZM714.885 479.705C713.52 471.211 710.259 463.93 705.101 457.862C700.02 451.871 694.407 448.875 688.264 448.875C681.135 448.875 675.447 453.388 671.199 462.413C682.879 472.5 697.441 478.264 714.885 479.705Z" fill="white"/>
<path d="M472.225 388.81L497.708 407.353L514.09 388.81L488.721 370.38L472.225 388.81Z" fill="white"/>
<path d="M520.689 551.853L536.275 534.333L559.71 551.853L544.238 569.259L520.689 551.853ZM559.71 551.853L575.41 534.333L598.618 551.853L583.146 569.259L559.71 551.853Z" fill="white"/>
<path fill-rule="evenodd" clip-rule="evenodd" d="M509.746 337.683C484.907 344.339 424.313 360.575 424.313 360.575C424.313 360.575 427.527 344.626 435.289 342.546C471.772 332.771 519.738 319.087 519.738 319.087C519.738 319.087 516.04 335.997 509.746 337.683Z" fill="#FF2057"/>
<path fill-rule="evenodd" clip-rule="evenodd" d="M742.789 536.975C717.95 543.631 657.357 559.867 657.357 559.867C657.357 559.867 660.571 543.918 668.333 541.838C704.815 532.063 752.781 518.379 752.781 518.379C752.781 518.379 749.084 535.289 742.789 536.975Z" fill="#FF2057"/>
<path d="M337.844 714.084L334.078 669.882C353.899 687.523 384.821 695.452 410.193 695.452C436.555 695.452 452.016 690.695 452.016 680.388C452.016 654.223 336.258 692.875 336.258 632.816C336.258 595.551 371.342 585.839 405.039 585.839C435.366 585.839 453.998 591.984 469.063 598.326L473.027 638.366C458.359 625.284 434.177 619.535 406.625 619.535C379.469 619.535 363.612 625.68 363.612 634.005C363.612 660.17 479.172 621.319 479.172 682.172C479.172 718.841 447.457 731.131 410.193 731.131C380.064 731.131 355.089 724.788 337.844 714.084Z" fill="white"/>
<path d="M484.214 589.209H519.893L554.382 642.529L588.475 589.209H616.225L562.113 670.279V727.959H538.327V670.279L484.214 589.209Z" fill="white"/>
<path d="M633.329 589.209H703.696C743.339 589.209 756.421 609.228 756.421 634.005C756.421 658.782 743.339 681.775 703.696 681.775L657.115 681.973V727.959H633.329V589.209ZM697.551 618.941H657.115V652.043L697.551 651.845C724.31 651.845 733.626 648.475 733.626 634.6C733.626 620.725 724.31 618.941 697.551 618.941Z" fill="white"/>
</svg>
