<svg width="1080" height="240" viewBox="0 0 1080 240" fill="none" xmlns="http://www.w3.org/2000/svg">
<g clip-path="url(#clip0_527_2622)">
<path fill-rule="evenodd" clip-rule="evenodd" d="M31.5149 43.6016H184.31V196.397H31.5149V43.6016ZM39.6016 51.6883V188.31H176.223V51.6883H39.6016Z" fill="#FF2057"/>
<path fill-rule="evenodd" clip-rule="evenodd" d="M0.000488281 120L108 12L216.001 120L108 228L0.000488281 120ZM11.4368 120L108 216.564L204.564 120L108 23.4363L11.4368 120Z" fill="#1B1123"/>
<path d="M35.5581 47.6455H107.912M180.266 47.6455V120M180.266 192.354H107.912M35.5581 192.354V120" stroke="#FF2057" stroke-width="8.0867"/>
<path d="M75.3386 112.911L73.8495 113.656L73.8229 113.682C69.7458 113.682 66.7676 112.716 64.8886 110.784C62.9564 108.834 61.9902 105.679 61.9902 101.318V77.7399L68.0262 71.7295V98.3398C68.0262 100.822 68.4871 102.488 69.4089 103.339C70.4016 104.243 72.3427 104.695 75.2322 104.695L74.5409 109.189L75.2588 104.695L76.5617 105.493L75.3386 112.911Z" fill="#1B1123"/>
<path d="M88.2615 112.911L86.7724 113.656V113.682H73.8495L72.5466 112.885L73.7698 105.466L75.2854 104.695H88.1551L87.4638 109.189L88.1817 104.695L89.4847 105.493L88.2615 112.911Z" fill="#1B1123"/>
<path d="M107.965 112.911L106.476 113.656L106.449 113.682C103.95 113.682 101.982 113.425 100.546 112.911C99.0572 112.38 97.8872 111.449 97.0363 110.119C96.1854 111.502 95.0243 112.442 93.553 112.938C92.1171 113.434 89.8569 113.682 86.7724 113.682L85.4695 112.885L86.6927 105.466L88.2083 104.695C90.7787 104.695 92.5071 104.278 93.3934 103.445C94.2621 102.63 94.9268 100.777 95.3877 97.8878L95.8929 94.4576L99.7751 93.5536L99.6156 97.0103C99.456 100.272 99.9169 102.382 100.998 103.339C102.009 104.243 104.304 104.695 107.885 104.695L109.188 105.493L107.965 112.911Z" fill="#1B1123"/>
<path d="M127.642 112.911L126.153 113.656L126.126 113.682C123.627 113.682 121.659 113.425 120.223 112.911C118.734 112.38 117.564 111.449 116.713 110.119C115.862 111.502 114.701 112.442 113.23 112.938C111.794 113.434 109.534 113.682 106.449 113.682L105.146 112.885L106.37 105.466L107.885 104.695C110.456 104.695 112.184 104.278 113.07 103.445C113.939 102.63 114.604 100.777 115.065 97.8878L115.57 94.4576L119.452 93.5536L119.292 97.0103C119.133 100.272 119.594 102.382 120.675 103.339C121.686 104.243 123.981 104.695 127.562 104.695L128.865 105.493L127.642 112.911Z" fill="#1B1123"/>
<path d="M150.589 94.9894C152.451 98.2335 153.381 102.08 153.381 106.53C153.381 107.168 153.044 108.214 152.371 109.667C151.679 111.139 150.837 112.477 149.845 113.682C147.469 113.665 144.988 113.23 142.399 112.38C139.935 111.582 137.773 110.483 135.911 109.082H135.778C134.715 110.713 133.492 111.874 132.109 112.566C130.62 113.31 128.626 113.682 126.126 113.682L124.823 112.885L126.046 105.466L127.562 104.695C129.406 104.695 130.842 104.296 131.87 103.498C133.04 102.594 134.334 100.706 135.752 97.8346C137.117 95.0869 138.455 93.1104 139.767 91.905C141.026 90.735 142.426 90.15 143.968 90.15C146.521 90.15 148.728 91.7631 150.589 94.9894ZM148.861 105.891C148.542 103.906 147.78 102.204 146.574 100.786C145.386 99.3857 144.075 98.6855 142.639 98.6855C140.972 98.6855 139.643 99.7402 138.65 101.85C141.38 104.207 144.784 105.555 148.861 105.891Z" fill="#1B1123"/>
<path d="M92.1436 84.6455L98.0998 88.9798L101.929 84.6455L95.9992 80.3379L92.1436 84.6455Z" fill="#1B1123"/>
<path d="M103.471 122.755L107.114 118.66L112.592 122.755L108.975 126.823L103.471 122.755ZM112.592 122.755L116.261 118.66L121.686 122.755L118.069 126.823L112.592 122.755Z" fill="#1B1123"/>
<path fill-rule="evenodd" clip-rule="evenodd" d="M100.913 72.6984C95.1077 74.254 80.9451 78.0488 80.9451 78.0488C80.9451 78.0488 81.6963 74.3211 83.5106 73.835C92.0376 71.5502 103.249 68.3517 103.249 68.3517C103.249 68.3517 102.385 72.3041 100.913 72.6984Z" fill="#FF2057"/>
<path fill-rule="evenodd" clip-rule="evenodd" d="M155.383 119.279C149.577 120.835 135.415 124.63 135.415 124.63C135.415 124.63 136.166 120.902 137.98 120.416C146.507 118.131 157.719 114.933 157.719 114.933C157.719 114.933 156.854 118.885 155.383 119.279Z" fill="#FF2057"/>
<path d="M60.7345 160.674L59.8542 150.343C64.4872 154.466 71.7145 156.319 77.6446 156.319C83.8064 156.319 87.4201 155.207 87.4201 152.798C87.4201 146.683 60.3639 155.717 60.3639 141.679C60.3639 132.969 68.5641 130.699 76.4401 130.699C83.5284 130.699 87.8834 132.135 91.4044 133.618L92.331 142.976C88.9026 139.919 83.2505 138.575 76.8107 138.575C70.4636 138.575 66.7573 140.011 66.7573 141.957C66.7573 148.073 93.7672 138.992 93.7672 153.215C93.7672 161.786 86.3545 164.658 77.6446 164.658C70.6026 164.658 64.7651 163.176 60.7345 160.674Z" fill="#1B1123"/>
<path d="M94.9457 131.487H103.285L111.346 143.949L119.315 131.487H125.801L113.153 150.435V163.917H107.594V150.435L94.9457 131.487Z" fill="#1B1123"/>
<path d="M129.799 131.487H146.245C155.511 131.487 158.569 136.166 158.569 141.957C158.569 147.748 155.511 153.123 146.245 153.123L135.358 153.169V163.917H129.799V131.487ZM144.809 138.436H135.358V146.173L144.809 146.127C151.064 146.127 153.241 145.339 153.241 142.096C153.241 138.853 151.064 138.436 144.809 138.436Z" fill="#1B1123"/>
<path d="M293.363 91.9313V102.639C293.363 103.619 292.709 104.273 291.728 104.273H258.135C257.154 104.273 256.5 103.619 256.5 102.639V91.9313C256.5 90.9505 257.154 90.3784 258.135 90.3784H270.804V61.0354H258.135C257.154 61.0354 256.5 60.3816 256.5 59.4007V48.7752C256.5 47.7944 257.154 47.1405 258.135 47.1405H291.728C292.709 47.1405 293.363 47.7944 293.363 48.7752V59.4007C293.363 60.3816 292.709 61.0354 291.728 61.0354H278.977V90.3784H291.728C292.709 90.3784 293.363 90.9505 293.363 91.9313Z" fill="#1B1123"/>
<path d="M346.426 79.0989C346.426 80.0797 345.772 80.6519 344.791 80.6519H310.544V90.4601H348.061C349.041 90.4601 349.695 91.114 349.695 92.0948V102.72C349.695 103.701 349.041 104.355 348.061 104.355H302.371C301.39 104.355 300.736 103.701 300.736 102.72V48.7752C300.736 47.7944 301.39 47.1405 302.371 47.1405H348.061C349.041 47.1405 349.695 47.7944 349.695 48.7752V59.4007C349.695 60.3816 349.041 61.0354 348.061 61.0354H310.544V69.209H344.791C345.772 69.209 346.426 69.7811 346.426 70.7619V79.0989Z" fill="#1B1123"/>
<path d="M403.577 79.0989C403.577 80.0797 402.923 80.6519 401.942 80.6519H367.695V90.4601H405.211C406.192 90.4601 406.846 91.114 406.846 92.0948V102.72C406.846 103.701 406.192 104.355 405.211 104.355H359.521C358.541 104.355 357.887 103.701 357.887 102.72V48.7752C357.887 47.7944 358.541 47.1405 359.521 47.1405H405.211C406.192 47.1405 406.846 47.7944 406.846 48.7752V59.4007C406.846 60.3816 406.192 61.0354 405.211 61.0354H367.695V69.209H401.942C402.923 69.209 403.577 69.7811 403.577 70.7619V79.0989Z" fill="#1B1123"/>
<path d="M460.727 79.0989C460.727 80.0797 460.074 80.6519 459.093 80.6519H424.846V90.4601H462.362C463.343 90.4601 463.997 91.114 463.997 92.0948V102.72C463.997 103.701 463.343 104.355 462.362 104.355H416.672C415.691 104.355 415.037 103.701 415.037 102.72V48.7752C415.037 47.7944 415.691 47.1405 416.672 47.1405H462.362C463.343 47.1405 463.997 47.7944 463.997 48.7752V59.4007C463.997 60.3816 463.343 61.0354 462.362 61.0354H424.846V69.209H459.093C460.074 69.209 460.727 69.7811 460.727 70.7619V79.0989Z" fill="#1B1123"/>
<path d="M506.501 102.72C506.501 103.701 505.847 104.355 504.866 104.355H498.328C497.347 104.355 496.693 103.701 496.693 102.72V48.7752C496.693 47.7944 497.347 47.1405 498.328 47.1405H525.709C544.508 47.1405 547.45 54.7418 547.45 64.9587C547.45 75.0122 542.628 82.6135 524.646 82.8587C525.545 89.2341 528.406 91.3592 534.373 91.3592C537.724 91.3592 540.666 90.7053 543.118 89.1523C544.017 88.5802 544.671 88.335 545.243 88.335C546.061 88.335 546.47 89.0706 546.47 90.8688V101.576C546.47 104.682 536.007 105.581 534.128 105.581C523.012 105.581 518.107 93.2391 516.963 82.8587L506.501 82.9405V102.72ZM506.501 58.5834V71.4158L523.175 71.3341C533.392 71.3341 538.051 70.435 538.051 64.7135C538.051 58.9921 533.392 58.5834 523.175 58.5834H506.501Z" fill="#1B1123"/>
<path d="M578.485 105.581C562.956 105.581 552.33 99.451 552.33 88.5802C552.33 83.2674 555.027 77.3007 564.1 74.44C558.787 72.1514 555.109 66.9204 555.109 61.4441C555.109 50.0012 568.35 46.3231 578.322 46.3231C588.294 46.3231 601.698 50.0012 601.698 61.4441C601.698 66.9204 598.02 72.1514 592.707 74.44C601.78 77.3007 604.477 83.2674 604.477 88.5802C604.477 99.451 594.015 105.581 578.485 105.581ZM578.485 58.5834C571.293 58.5834 563.283 60.1364 563.283 64.4683C563.283 69.6994 572.355 70.8437 578.404 70.8437C584.452 70.8437 593.525 69.6994 593.525 64.4683C593.525 60.1364 585.678 58.5834 578.485 58.5834ZM578.322 90.2149C586.087 90.2149 595.486 88.7437 595.486 83.5126C595.486 76.9738 581.101 76.7286 578.322 76.7286C575.543 76.7286 561.321 76.9738 561.321 83.5126C561.321 88.7437 570.557 90.2149 578.322 90.2149Z" fill="#1B1123"/>
<path d="M637.175 102.72V48.7752C637.175 47.7944 637.829 47.1405 638.81 47.1405H650.825C651.479 47.1405 652.051 47.5491 652.296 48.1213L668.888 84.4117L687.851 48.0396C688.096 47.5491 688.75 47.1405 689.322 47.1405H698.967C699.948 47.1405 700.602 47.7944 700.602 48.7752V102.72C700.602 103.701 699.948 104.355 698.967 104.355H688.341C687.36 104.355 686.707 103.701 686.707 102.72V70.9254L669.706 103.538C669.46 104.028 668.807 104.355 668.234 104.355H663.657C663.085 104.355 662.513 104.028 662.268 103.456L646.166 70.8437V102.72C646.166 103.701 645.512 104.355 644.531 104.355H638.81C637.829 104.355 637.175 103.701 637.175 102.72Z" fill="#1B1123"/>
<path d="M757.736 79.0989C757.736 80.0797 757.082 80.6519 756.101 80.6519H721.854V90.4601H759.37C760.351 90.4601 761.005 91.114 761.005 92.0948V102.72C761.005 103.701 760.351 104.355 759.37 104.355H713.68C712.7 104.355 712.046 103.701 712.046 102.72V48.7752C712.046 47.7944 712.7 47.1405 713.68 47.1405H759.37C760.351 47.1405 761.005 47.7944 761.005 48.7752V59.4007C761.005 60.3816 760.351 61.0354 759.37 61.0354H721.854V69.209H756.101C757.082 69.209 757.736 69.7811 757.736 70.7619V79.0989Z" fill="#1B1123"/>
<path d="M769.197 102.72V48.7752C769.197 47.7944 769.85 47.1405 770.831 47.1405H780.721C781.13 47.1405 781.62 47.3857 781.947 47.7126L811.29 81.224V48.7752C811.29 47.7944 811.944 47.1405 812.925 47.1405H819.464C820.444 47.1405 821.098 47.7944 821.098 48.7752V102.72C821.098 103.701 820.444 104.355 819.464 104.355H811.208C810.8 104.355 810.309 104.11 809.982 103.783L779.005 68.0647V102.72C779.005 103.701 778.351 104.355 777.37 104.355H770.831C769.85 104.355 769.197 103.701 769.197 102.72Z" fill="#1B1123"/>
<path d="M837.641 104.355H830.938C829.467 104.355 828.895 103.456 829.467 102.148L852.598 48.1213C852.843 47.5491 853.416 47.1405 854.07 47.1405H864.777C865.431 47.1405 866.003 47.5491 866.248 48.1213L888.235 102.148C888.807 103.456 888.235 104.355 886.764 104.355H879.407C878.754 104.355 878.181 103.946 877.936 103.374L874.095 94.0565H843.199L839.112 103.374C838.867 103.946 838.295 104.355 837.641 104.355ZM849.656 79.3441H867.964L861.017 62.6701H856.93L849.656 79.3441Z" fill="#1B1123"/>
<path d="M895.609 99.0423C895.201 98.7971 894.874 98.3067 894.792 97.8163L893.648 84.4117C893.484 82.8587 893.893 82.1231 894.71 82.1231C895.201 82.1231 895.773 82.3683 896.509 82.8587C904.6 88.4167 915.553 90.9505 924.707 90.9505C935.578 90.9505 941.953 88.9889 941.953 84.7386C941.953 73.9496 894.22 89.888 894.22 65.1222C894.22 49.756 908.687 45.751 922.582 45.751C934.515 45.751 942.035 48.0396 948.083 50.4916C948.656 50.7368 948.983 51.2272 949.064 51.7994L950.209 63.324C950.372 64.9587 950.045 65.6944 949.146 65.6944C948.656 65.6944 948.083 65.5309 947.348 65.0405C941.299 61.3624 932.717 59.6459 923.236 59.6459C912.038 59.6459 905.499 62.1797 905.499 65.6126C905.499 76.4017 953.151 60.3816 953.151 85.4743C953.151 100.595 940.073 105.663 924.707 105.663C912.692 105.663 902.639 103.211 895.609 99.0423Z" fill="#1B1123"/>
<path d="M956.865 49.6743C955.884 48.203 956.456 47.1405 958.254 47.1405H969.043C969.534 47.1405 970.188 47.4674 970.433 47.8761L984.164 69.1272L997.732 47.8761C997.978 47.4674 998.632 47.1405 999.122 47.1405H1006.64C1008.44 47.1405 1009.01 48.203 1008.03 49.6743L987.352 80.5702V102.72C987.352 103.701 986.698 104.355 985.717 104.355H979.179C978.198 104.355 977.544 103.701 977.544 102.72V80.5702L956.865 49.6743Z" fill="#1B1123"/>
<path d="M1026.53 102.72C1026.53 103.701 1025.87 104.355 1024.89 104.355H1018.27C1017.29 104.355 1016.72 103.701 1016.72 102.72V48.7752C1016.72 47.7944 1017.29 47.1405 1018.27 47.1405H1045.73C1062.08 47.1405 1067.48 55.3957 1067.48 65.6126C1067.48 75.8295 1062.08 85.3108 1045.73 85.3108L1026.53 85.3925V102.72ZM1026.53 59.4007V73.0505L1043.2 72.9688C1054.24 72.9688 1058.08 71.5793 1058.08 65.8578C1058.08 60.1364 1054.24 59.4007 1043.2 59.4007H1026.53Z" fill="#1B1123"/>
<path d="M645.921 177.963H681.035V192.849H631.122L630.947 180.678C630.947 167.98 670.352 161.676 670.352 150.292C670.352 145.738 664.047 143.812 653.714 143.812C642.856 143.812 633.136 151.255 633.136 151.255L631.822 135.843C634.274 134.442 643.031 130.239 654.677 130.239C670.44 130.239 680.072 136.456 680.072 149.153C680.072 167.28 647.147 172.534 645.921 177.963Z" fill="#FF2057"/>
<path d="M685.12 161.851C685.12 143.724 695.803 130.151 720.322 130.151C744.841 130.151 753 143.724 753 161.851C753 179.889 744.841 194.163 720.322 194.163C695.803 194.163 685.12 179.364 685.12 161.851ZM695.628 161.763C695.628 172.096 705.611 180.502 720.497 180.502C737.135 180.502 744.666 172.096 744.666 161.763C744.666 151.43 737.135 143.812 720.497 143.812C705.611 143.812 695.628 151.43 695.628 161.763Z" fill="#FF2057"/>
<path d="M773.359 177.963H808.474V192.849H758.561L758.386 180.678C758.386 167.98 797.791 161.676 797.791 150.292C797.791 145.738 791.486 143.812 781.153 143.812C770.295 143.812 760.575 151.255 760.575 151.255L759.261 135.843C761.713 134.442 770.47 130.239 782.116 130.239C797.878 130.239 807.511 136.456 807.511 149.153C807.511 167.28 774.585 172.534 773.359 177.963Z" fill="#FF2057"/>
<path d="M814.985 185.143L817.174 169.119C817.174 169.119 825.581 179.189 839.679 179.189C849.399 179.189 855.967 177.262 855.967 169.119C855.967 162.464 848.348 159.924 840.292 159.924C833.549 159.924 826.456 161.763 823.479 164.565L816.649 159.136L819.976 131.552H863.672L861.045 143.812H828.821L826.894 154.057C830.047 152.306 836.176 150.817 842.656 150.817C853.602 150.817 865.599 155.196 865.599 170.695C865.599 183.129 859.031 194.163 839.679 194.163C830.047 194.163 820.239 190.485 814.985 185.143Z" fill="#FF2057"/>
<path d="M437.425 129.41L451.976 139.999L461.331 129.41L446.844 118.886L437.425 129.41Z" fill="#FF2057"/>
<path d="M515.662 129.41L530.214 139.999L539.568 129.41L525.082 118.886L515.662 129.41Z" fill="#FF2057"/>
<path d="M309.916 147.314H289.338V192.849H276.991V147.314H256.5V131.552H309.916V147.314Z" fill="#FF2057"/>
<path d="M368.97 192.849H359.776L358.462 183.216H358.024C355.573 191.097 347.604 194.162 339.723 194.162C323.348 194.162 316.08 184.53 316.08 170.519V143.811H326.588V162.113C326.588 174.547 331.492 177.437 342 177.437C352.508 177.437 358.462 174.197 358.462 161.85V143.811H368.97V192.849Z" fill="#FF2057"/>
<path d="M379.467 143.811H388.661L389.975 153.444H390.413C392.865 145.563 400.833 142.498 408.714 142.498C425.089 142.498 432.357 152.13 432.357 166.141V192.849H421.849V174.547C421.849 162.113 415.632 159.223 405.124 159.223C395.492 159.223 389.975 166.141 389.975 174.81V192.849H379.467V143.811Z" fill="#FF2057"/>
<path d="M443.204 143.811H453.712V192.849H443.204V143.811Z" fill="#FF2057"/>
<path d="M462.534 188.821L462.359 172.708C467.35 176.561 476.019 180.064 487.14 180.064C496.51 180.064 504.04 179.101 504.04 175.423C504.04 172.358 496.159 173.059 487.315 173.059C475.931 173.059 463.059 171.92 463.059 160.099C463.059 146.876 473.655 142.76 487.403 142.76C495.196 142.76 504.741 144.862 510.083 147.139L511.133 162.2C505.879 158.347 495.634 155.895 487.228 155.895C478.208 155.895 472.691 157.209 472.691 160.536C472.691 164.214 480.835 163.514 489.942 163.514C501.151 163.514 513.673 164.652 513.673 176.912C513.673 189.871 503.603 194.25 487.841 194.25C476.369 194.25 469.539 191.885 462.534 188.821Z" fill="#FF2057"/>
<path d="M522.391 143.811H532.899V192.849H522.391V143.811Z" fill="#FF2057"/>
<path d="M543.647 162.638L544.522 146.701C549.426 144.512 558.358 142.498 568.253 142.498C586.905 142.498 595.749 151.254 595.837 165.265V192.849H586.642L585.329 181.465H584.891C582.614 187.332 575.171 194.162 563.262 194.162C547.938 194.162 541.37 188.208 541.37 178.663C541.37 166.403 557.22 162.813 570.705 162.813C576.309 162.813 581.476 163.426 584.978 164.302C583.577 158.522 578.061 156.421 567.64 156.421C555.906 156.421 549.601 159.223 543.647 162.638ZM552.841 175.16C552.841 178.313 557.22 179.714 566.677 179.714C578.148 179.714 585.329 175.51 585.329 171.745V169.906C585.329 169.906 579.724 169.381 573.157 169.381C563.962 169.381 552.841 170.432 552.841 175.16Z" fill="#FF2057"/>
</g>
<defs>
<clipPath id="clip0_527_2622">
<rect width="1080" height="240" fill="white"/>
</clipPath>
</defs>
</svg>
